<?xml version="1.0" encoding="UTF-8"?>
<svg id="Capa_1" xmlns="http://www.w3.org/2000/svg" version="1.1" viewBox="0 0 1080 203.45">
  <!-- Generator: Adobe Illustrator 29.3.1, SVG Export Plug-In . SVG Version: 2.1.0 Build 151)  -->
  <defs>
    <style>
      .st0 {
        fill: #ee4c01;
      }
    </style>
  </defs>
  <g>
    <path d="M134.75,121.85c0-38.38,25.73-68.99,65.89-68.99,28.84,0,56.57,15.75,56.79,51.47.22,39.04-25.96,68.55-66.55,68.55-27.95,0-56.12-15.53-56.12-51.02ZM191.54,144.93c18.19,0,24.18-26.4,23.96-41.93,0-11.09-3.77-21.96-15.75-21.96-17.97,0-23.74,27.95-23.51,42.37,0,11.54,3.55,21.52,15.31,21.52Z"/>
    <path d="M267.63,56.19h14.42l7.1-36.6h40.37l-7.1,36.6h21.07l-5.1,25.07h-21.07l-8.87,46.81c-1.55,8.87,1.11,11.76,10.43,11.76,2.22,0,5.55-.22,7.99-.44l-5.77,29.28c-4.88,1.33-11.54,2.88-20.63,2.88-27.73,0-38.38-12.87-33.5-37.93l9.98-52.35h-14.42l5.1-25.07Z"/>
    <path d="M354.15,56.19h41.26l-21.96,113.14h-41.26l21.96-113.14ZM362.8,10.71h41.26l-5.99,31.72h-41.26l5.99-31.72Z"/>
    <path d="M394.08,122.74c0-39.27,26.62-69.88,66.99-69.88,29.5,0,51.47,13.98,52.13,45.25h-39.04c-.67-9.1-3.55-16.19-13.97-16.19-17.52,0-24.62,24.85-24.62,41.26,0,10.87,3.77,20.41,15.75,20.41,9.32,0,17.3-6.43,20.63-19.96h38.82c-5.32,31.72-29.73,49.02-59.01,49.25-30.39,0-57.68-13.75-57.68-50.14Z"/>
    <path d="M532.29,56.19h41.26l-21.96,113.14h-41.26l21.96-113.14ZM540.94,10.71h41.26l-5.99,31.72h-41.26l5.99-31.72Z"/>
    <path d="M634.11,156.9h-.44c-8.43,10.43-20.19,15.31-30.39,15.31-22.18,0-35.05-12.65-35.05-31.95,0-25.29,17.08-35.71,44.59-37.27,23.51-1.33,33.72-3.11,33.72-14.2,0-4.66-2.88-8.87-10.65-8.87-9.54,0-15.08,4.66-17.3,13.53h-39.27c4.44-23.96,21.96-40.82,59.01-40.82,12.2,0,24.62,1.55,34.16,7.76,10.43,6.88,17.08,19.3,12.87,40.37l-9.76,49.91c-2,9.54-1.55,14.64.67,16.86l-.22,1.77h-40.15c-1.11-2.66-1.77-7.54-1.77-12.42ZM639.88,128.73l2-9.98c-4.44,2-9.76,3.33-16.86,4.44-7.54,1.11-17.08,3.1-17.08,13.53,0,7.54,4.88,10.43,12.42,10.43,8.65,0,16.64-4.22,19.52-18.41Z"/>
    <path d="M686.69,132.72h39.04c.22,8.87,4.44,14.86,16.86,14.86,7.54,0,13.09-2.66,13.09-9.32,0-7.99-10.65-9.09-24.18-12.64-20.85-5.32-35.05-12.87-35.05-33.28,0-25.95,23.29-39.71,53.46-39.71,24.84,0,49.47,7.99,50.36,35.05h-37.93c-.67-7.32-6.21-10.2-14.2-10.2-6.43,0-12.87,2.44-12.87,7.76s6.43,7.99,21.07,11.31c19.08,4.44,38.82,11.31,38.82,33.94,0,28.39-21.07,42.59-53.91,42.59-25.73,0-54.79-7.99-54.57-40.37Z"/>
  </g>
  <path d="M97.45,52.66c-16.18,0-29.04,9.09-37.46,21.28H19.97L1.47,169.26h41.23l11.97-62.29c2.44-11.97,10.42-21.28,20.61-21.28,10.86,0,13.3,7.76,11.3,17.73l-12.86,65.83h41.23l13.08-67.83c6.21-31.7-7.31-48.76-30.59-48.76Z"/>
  <path class="st0" d="M901.57,2.2h-36.13c-28.82,34.8-48.32,81.35-48.32,138.98,0,23.27,4.43,43.45,10.86,60.07h33.91c-3.1-14.41-5.98-34.36-5.98-56.97,0-54.31,18.4-99.97,45.66-142.08Z"/>
  <path class="st0" d="M1018.99,24h-41.25l-8.96,46.03h-.66c-6.87-10.86-16.62-17.29-31.92-17.29-38.12,0-57.85,36.13-58.07,70.93-.22,30.15,17.07,49.43,42.78,49.43,13.74,0,26.16-7.98,32.81-17.29h39.85l25.44-131.81ZM937.52,141.84c-12.41,0-16.4-11.08-16.4-21.72,0-16.18,7.32-37.46,24.38-37.68,12.63,0,16.85,11.97,16.85,22.83,0,15.96-8.42,36.57-24.83,36.57Z"/>
  <path class="st0" d="M1067.67,2.2h-33.91c3.1,14.41,5.98,34.36,5.98,56.97,0,54.31-18.4,99.97-45.66,142.08h36.13c28.82-34.8,48.32-81.35,48.32-138.98,0-23.27-4.43-43.44-10.86-60.07Z"/>
</svg>