<?xml version="1.0" encoding="UTF-8"?>
<svg id="Capa_1" xmlns="http://www.w3.org/2000/svg" version="1.1" viewBox="0 0 1080 530.55">
  <!-- Generator: Adobe Illustrator 29.3.1, SVG Export Plug-In . SVG Version: 2.1.0 Build 151)  -->
  <defs>
    <style>
      .st0 {
        fill: #ee4c01;
      }
    </style>
  </defs>
  <path d="M254.71,136.06c-42.68,0-76.6,23.97-98.81,56.13H50.34L1.53,443.61h108.75l31.57-164.3c6.43-31.57,27.48-56.13,54.38-56.13,28.65,0,35.08,20.46,29.82,46.78l-33.91,173.66h108.75l34.5-178.92c16.37-83.61-19.29-128.63-80.69-128.63Z"/>
  <path class="st0" d="M602.83,2.75h-95.31c-76.01,91.8-127.47,214.59-127.47,366.61,0,61.39,11.69,114.6,28.65,158.45h89.46c-8.19-38.01-15.79-90.63-15.79-150.27,0-143.25,48.53-263.7,120.45-374.79Z"/>
  <path class="st0" d="M919.18,60.24h-108.82l-23.65,121.42h-1.75c-18.13-28.65-43.85-45.61-84.2-45.61-100.57,0-152.61,95.31-153.19,187.1-.59,79.52,45.02,130.39,112.85,130.39,36.25,0,68.99-21.05,86.54-45.61h105.11l67.11-347.7ZM704.28,371.11c-32.74,0-43.27-29.24-43.27-57.3,0-42.68,19.3-98.81,64.32-99.4,33.33,0,44.44,31.57,44.44,60.22,0,42.1-22.22,96.48-65.49,96.48Z"/>
  <path class="st0" d="M1049.82,2.75h-89.46c8.19,38.01,15.79,90.63,15.79,150.27,0,143.25-48.53,263.7-120.45,374.79h95.31c76.01-91.8,127.46-214.59,127.46-366.61,0-61.39-11.69-114.6-28.65-158.45Z"/>
</svg>